<?xml version="1.0" encoding="UTF-8"?>
<svg width="40px" height="40px" viewBox="0 0 40 40" version="1.1" xmlns="http://www.w3.org/2000/svg" xmlns:xlink="http://www.w3.org/1999/xlink">
    <!-- Generator: Sketch 47.1 (45422) - http://www.bohemiancoding.com/sketch -->
    <title>close</title>
    <desc>Created with Sketch.</desc>
    <defs/>
    <g id="Assets" stroke="none" stroke-width="1" fill="none" fill-rule="evenodd">
        <g id="close" fill-rule="nonzero" fill="#FFFFFF">
            <g id="cancel" transform="translate(2.000000, 2.000000)">
                <path fill="#ff9d00"  d="M18,0 C8.05884677,0 0,8.05884677 0,18 C0,27.9411532 8.05884677,36 18,36 C27.9411532,36 36,27.9411532 36,18 C35.9884597,8.0636371 27.9363629,0.0115403226 18,0 Z M18,34.8387097 C8.70024194,34.8387097 1.16129032,27.2997581 1.16129032,18 C1.16129032,8.70024194 8.70024194,1.16129032 18,1.16129032 C27.2997581,1.16129032 34.8387097,8.70024194 34.8387097,18 C34.8284758,27.2955484 27.2955484,34.8284758 18,34.8387097 Z" id="Shape"/>
                <path fill="#ff9d00"  d="M26.2114839,9.78851613 C25.9847419,9.56184677 25.6171935,9.56184677 25.3904516,9.78851613 L18,17.1789677 L10.6095484,9.78851613 C10.3867984,9.55785484 10.0191774,9.55146774 9.78851613,9.77421774 C9.55785484,9.99696774 9.55146774,10.3645887 9.77421774,10.59525 C9.7788629,10.6001129 9.78365323,10.6048306 9.78851613,10.6095484 L17.1789677,18 L9.78851613,25.3904516 C9.55785484,25.6132742 9.55146774,25.9808226 9.77429032,26.2114839 C9.9971129,26.4421452 10.3646613,26.4485323 10.5953226,26.2257097 C10.6001855,26.2210645 10.6049032,26.2162742 10.6095484,26.2114839 L18,18.8210323 L25.3904516,26.2114839 C25.6211129,26.4343065 25.9886613,26.4279194 26.2114839,26.1972581 C26.4288629,25.9722581 26.4288629,25.6154516 26.2114839,25.3904516 L18.8210323,18 L26.2114839,10.6095484 C26.4381532,10.3828065 26.4381532,10.0152581 26.2114839,9.78851613 Z" id="Shape"/>
            </g>
        </g>
    </g>
</svg>
